<mxfile host="app.diagrams.net" modified="2021-08-17T06:41:09.935Z" agent="5.0 (Macintosh; Intel Mac OS X 10_15_7) AppleWebKit/537.36 (KHTML, like Gecko) Chrome/92.0.4515.107 Safari/537.36 Edg/92.0.902.55" etag="FMtQAupQ4GejL5Z6UPGD" version="14.9.7" type="github">
  <diagram name="Page-1" id="e7e014a7-5840-1c2e-5031-d8a46d1fe8dd">
    <mxGraphModel dx="1395" dy="718" grid="1" gridSize="10" guides="1" tooltips="1" connect="1" arrows="1" fold="1" page="1" pageScale="1" pageWidth="1169" pageHeight="826" background="none" math="0" shadow="0">
      <root>
        <mxCell id="0" />
        <mxCell id="1" parent="0" />
        <mxCell id="2" value="dm2" style="swimlane;whiteSpace=wrap" parent="1" vertex="1">
          <mxGeometry x="80" y="50" width="280" height="570" as="geometry" />
        </mxCell>
        <mxCell id="7" value="发弹幕" style="" parent="2" vertex="1">
          <mxGeometry x="85" y="102" width="110" height="50" as="geometry" />
        </mxCell>
        <mxCell id="8" value="表情灰度控制" style="" parent="2" vertex="1">
          <mxGeometry x="85" y="192" width="110" height="50" as="geometry" />
        </mxCell>
        <mxCell id="9" value="" style="endArrow=open;strokeColor=#FF0000;endFill=1;rounded=0" parent="2" source="7" target="8" edge="1">
          <mxGeometry relative="1" as="geometry" />
        </mxCell>
        <mxCell id="10" value="表情关键字匹配" style="" parent="2" vertex="1">
          <mxGeometry x="85" y="285" width="110" height="45" as="geometry" />
        </mxCell>
        <mxCell id="11" value="" style="endArrow=open;strokeColor=#FF0000;endFill=1;rounded=0" parent="2" source="8" target="10" edge="1">
          <mxGeometry relative="1" as="geometry" />
        </mxCell>
        <mxCell id="vn2DtY_k7in4Bm42oAzA-55" style="edgeStyle=orthogonalEdgeStyle;rounded=0;orthogonalLoop=1;jettySize=auto;html=1;entryX=0.5;entryY=0;entryDx=0;entryDy=0;strokeColor=#FF3333;" parent="2" source="vn2DtY_k7in4Bm42oAzA-46" target="vn2DtY_k7in4Bm42oAzA-54" edge="1">
          <mxGeometry relative="1" as="geometry" />
        </mxCell>
        <mxCell id="vn2DtY_k7in4Bm42oAzA-46" value="修改attr" style="" parent="2" vertex="1">
          <mxGeometry x="85" y="372" width="110" height="45" as="geometry" />
        </mxCell>
        <mxCell id="vn2DtY_k7in4Bm42oAzA-54" value="弹幕落库" style="" parent="2" vertex="1">
          <mxGeometry x="85" y="462" width="110" height="45" as="geometry" />
        </mxCell>
        <mxCell id="vn2DtY_k7in4Bm42oAzA-56" value="" style="ellipse;html=1;shape=startState;fillColor=#000000;strokeColor=#ff0000;" parent="2" vertex="1">
          <mxGeometry x="125" y="42" width="30" height="30" as="geometry" />
        </mxCell>
        <mxCell id="vn2DtY_k7in4Bm42oAzA-57" value="" style="edgeStyle=orthogonalEdgeStyle;html=1;verticalAlign=bottom;endArrow=open;endSize=8;strokeColor=#ff0000;entryX=0.5;entryY=0;entryDx=0;entryDy=0;" parent="2" source="vn2DtY_k7in4Bm42oAzA-56" target="7" edge="1">
          <mxGeometry relative="1" as="geometry">
            <mxPoint x="115.5" y="72" as="targetPoint" />
          </mxGeometry>
        </mxCell>
        <mxCell id="vn2DtY_k7in4Bm42oAzA-45" style="edgeStyle=orthogonalEdgeStyle;rounded=0;orthogonalLoop=1;jettySize=auto;html=1;strokeColor=#FF3333;entryX=0.5;entryY=0;entryDx=0;entryDy=0;" parent="2" source="10" target="vn2DtY_k7in4Bm42oAzA-46" edge="1">
          <mxGeometry relative="1" as="geometry">
            <mxPoint x="140.5" y="352" as="targetPoint" />
          </mxGeometry>
        </mxCell>
        <mxCell id="3" value="dm-job" style="swimlane;whiteSpace=wrap" parent="1" vertex="1">
          <mxGeometry x="640.5" y="50" width="285" height="570" as="geometry" />
        </mxCell>
        <mxCell id="vn2DtY_k7in4Bm42oAzA-62" style="edgeStyle=orthogonalEdgeStyle;rounded=0;orthogonalLoop=1;jettySize=auto;html=1;strokeColor=#FF3333;" parent="3" source="vn2DtY_k7in4Bm42oAzA-59" target="vn2DtY_k7in4Bm42oAzA-61" edge="1">
          <mxGeometry relative="1" as="geometry" />
        </mxCell>
        <mxCell id="vn2DtY_k7in4Bm42oAzA-59" value="dm_index binlog" style="" parent="3" vertex="1">
          <mxGeometry x="87.5" y="102" width="110" height="50" as="geometry" />
        </mxCell>
        <mxCell id="vn2DtY_k7in4Bm42oAzA-61" value="表情限频策略" style="" parent="3" vertex="1">
          <mxGeometry x="87.5" y="202" width="110" height="50" as="geometry" />
        </mxCell>
        <mxCell id="vn2DtY_k7in4Bm42oAzA-78" value="yes" style="edgeStyle=orthogonalEdgeStyle;rounded=0;orthogonalLoop=1;jettySize=auto;html=1;entryX=0.5;entryY=0;entryDx=0;entryDy=0;strokeColor=#FF3333;" parent="3" source="vn2DtY_k7in4Bm42oAzA-64" target="vn2DtY_k7in4Bm42oAzA-69" edge="1">
          <mxGeometry relative="1" as="geometry" />
        </mxCell>
        <mxCell id="vn2DtY_k7in4Bm42oAzA-64" value="限频" style="rhombus;whiteSpace=wrap;html=1;fillColor=#FFFF33;strokeColor=#FF0000;" parent="3" vertex="1">
          <mxGeometry x="102.5" y="292" width="80" height="48" as="geometry" />
        </mxCell>
        <mxCell id="vn2DtY_k7in4Bm42oAzA-69" value="表情打薄" style="" parent="3" vertex="1">
          <mxGeometry x="87.5" y="392" width="110" height="45" as="geometry" />
        </mxCell>
        <mxCell id="vn2DtY_k7in4Bm42oAzA-63" style="edgeStyle=orthogonalEdgeStyle;rounded=0;orthogonalLoop=1;jettySize=auto;html=1;exitX=0.5;exitY=1;exitDx=0;exitDy=0;strokeColor=#FF3333;entryX=0.5;entryY=0;entryDx=0;entryDy=0;" parent="3" source="vn2DtY_k7in4Bm42oAzA-61" target="vn2DtY_k7in4Bm42oAzA-64" edge="1">
          <mxGeometry relative="1" as="geometry">
            <mxPoint x="-352.5" y="292" as="targetPoint" />
          </mxGeometry>
        </mxCell>
        <mxCell id="vn2DtY_k7in4Bm42oAzA-94" value="" style="ellipse;html=1;shape=startState;fillColor=#000000;strokeColor=#ff0000;" parent="3" vertex="1">
          <mxGeometry x="127.5" y="42" width="30" height="30" as="geometry" />
        </mxCell>
        <mxCell id="vn2DtY_k7in4Bm42oAzA-95" value="" style="edgeStyle=orthogonalEdgeStyle;html=1;verticalAlign=bottom;endArrow=open;endSize=8;strokeColor=#ff0000;entryX=0.5;entryY=0;entryDx=0;entryDy=0;" parent="3" source="vn2DtY_k7in4Bm42oAzA-94" target="vn2DtY_k7in4Bm42oAzA-59" edge="1">
          <mxGeometry relative="1" as="geometry">
            <mxPoint x="142.5" y="102" as="targetPoint" />
          </mxGeometry>
        </mxCell>
        <mxCell id="4" value="redis" style="swimlane;whiteSpace=wrap" parent="1" vertex="1">
          <mxGeometry x="360.5" y="50" width="280" height="570" as="geometry" />
        </mxCell>
        <mxCell id="vn2DtY_k7in4Bm42oAzA-85" value="表情cache" style="swimlane;fontStyle=0;childLayout=stackLayout;horizontal=1;startSize=26;horizontalStack=0;resizeParent=1;resizeParentMax=0;resizeLast=0;collapsible=1;marginBottom=0;fillColor=#fff2cc;strokeColor=#d6b656;rounded=0;shadow=0;swimlaneFillColor=#FFFFCC;glass=0;sketch=0;" parent="4" vertex="1">
          <mxGeometry x="85" y="212" width="140" height="104" as="geometry" />
        </mxCell>
        <mxCell id="vn2DtY_k7in4Bm42oAzA-86" value="type: string" style="text;strokeColor=none;fillColor=none;align=left;verticalAlign=top;spacingLeft=4;spacingRight=4;overflow=hidden;rotatable=0;points=[[0,0.5],[1,0.5]];portConstraint=eastwest;" parent="vn2DtY_k7in4Bm42oAzA-85" vertex="1">
          <mxGeometry y="26" width="140" height="26" as="geometry" />
        </mxCell>
        <mxCell id="vn2DtY_k7in4Bm42oAzA-87" value="key: dm_expression_{id}" style="text;strokeColor=none;fillColor=none;align=left;verticalAlign=top;spacingLeft=4;spacingRight=4;overflow=hidden;rotatable=0;points=[[0,0.5],[1,0.5]];portConstraint=eastwest;" parent="vn2DtY_k7in4Bm42oAzA-85" vertex="1">
          <mxGeometry y="52" width="140" height="26" as="geometry" />
        </mxCell>
        <mxCell id="vn2DtY_k7in4Bm42oAzA-88" value="value: json string" style="text;strokeColor=none;fillColor=none;align=left;verticalAlign=top;spacingLeft=4;spacingRight=4;overflow=hidden;rotatable=0;points=[[0,0.5],[1,0.5]];portConstraint=eastwest;" parent="vn2DtY_k7in4Bm42oAzA-85" vertex="1">
          <mxGeometry y="78" width="140" height="26" as="geometry" />
        </mxCell>
        <mxCell id="vn2DtY_k7in4Bm42oAzA-89" value="表情弹幕池" style="swimlane;fontStyle=0;childLayout=stackLayout;horizontal=1;startSize=26;horizontalStack=0;resizeParent=1;resizeParentMax=0;resizeLast=0;collapsible=1;marginBottom=0;fillColor=#fff2cc;strokeColor=#d6b656;glass=0;shadow=0;rounded=0;sketch=0;swimlaneFillColor=#FFFFCC;" parent="4" vertex="1">
          <mxGeometry x="51.25" y="372" width="207.5" height="104" as="geometry">
            <mxRectangle x="62.5" y="233" width="90" height="26" as="alternateBounds" />
          </mxGeometry>
        </mxCell>
        <mxCell id="vn2DtY_k7in4Bm42oAzA-90" value="type: sorted set" style="text;strokeColor=none;fillColor=none;align=left;verticalAlign=top;spacingLeft=4;spacingRight=4;overflow=hidden;rotatable=0;points=[[0,0.5],[1,0.5]];portConstraint=eastwest;" parent="vn2DtY_k7in4Bm42oAzA-89" vertex="1">
          <mxGeometry y="26" width="207.5" height="26" as="geometry" />
        </mxCell>
        <mxCell id="vn2DtY_k7in4Bm42oAzA-91" value="key: dm_expression_pool_{cid}" style="text;strokeColor=none;fillColor=none;align=left;verticalAlign=top;spacingLeft=4;spacingRight=4;overflow=hidden;rotatable=0;points=[[0,0.5],[1,0.5]];portConstraint=eastwest;" parent="vn2DtY_k7in4Bm42oAzA-89" vertex="1">
          <mxGeometry y="52" width="207.5" height="26" as="geometry" />
        </mxCell>
        <mxCell id="vn2DtY_k7in4Bm42oAzA-92" value="member: progress, value: content" style="text;strokeColor=none;fillColor=none;align=left;verticalAlign=top;spacingLeft=4;spacingRight=4;overflow=hidden;rotatable=0;points=[[0,0.5],[1,0.5]];portConstraint=eastwest;" parent="vn2DtY_k7in4Bm42oAzA-89" vertex="1">
          <mxGeometry y="78" width="207.5" height="26" as="geometry" />
        </mxCell>
        <mxCell id="vn2DtY_k7in4Bm42oAzA-101" value="灰度cache" style="swimlane;fontStyle=0;childLayout=stackLayout;horizontal=1;startSize=26;horizontalStack=0;resizeParent=1;resizeParentMax=0;resizeLast=0;collapsible=1;marginBottom=0;fillColor=#fff2cc;strokeColor=#d6b656;rounded=0;shadow=0;swimlaneFillColor=#FFFFCC;glass=0;sketch=0;" parent="4" vertex="1">
          <mxGeometry x="85" y="62" width="140" height="104" as="geometry" />
        </mxCell>
        <mxCell id="vn2DtY_k7in4Bm42oAzA-102" value="type: string" style="text;strokeColor=none;fillColor=none;align=left;verticalAlign=top;spacingLeft=4;spacingRight=4;overflow=hidden;rotatable=0;points=[[0,0.5],[1,0.5]];portConstraint=eastwest;" parent="vn2DtY_k7in4Bm42oAzA-101" vertex="1">
          <mxGeometry y="26" width="140" height="26" as="geometry" />
        </mxCell>
        <mxCell id="vn2DtY_k7in4Bm42oAzA-103" value="key: gray_{exp_id}_{mid}" style="text;strokeColor=none;fillColor=none;align=left;verticalAlign=top;spacingLeft=4;spacingRight=4;overflow=hidden;rotatable=0;points=[[0,0.5],[1,0.5]];portConstraint=eastwest;" parent="vn2DtY_k7in4Bm42oAzA-101" vertex="1">
          <mxGeometry y="52" width="140" height="26" as="geometry" />
        </mxCell>
        <mxCell id="vn2DtY_k7in4Bm42oAzA-104" value="value: json string" style="text;strokeColor=none;fillColor=none;align=left;verticalAlign=top;spacingLeft=4;spacingRight=4;overflow=hidden;rotatable=0;points=[[0,0.5],[1,0.5]];portConstraint=eastwest;" parent="vn2DtY_k7in4Bm42oAzA-101" vertex="1">
          <mxGeometry y="78" width="140" height="26" as="geometry" />
        </mxCell>
        <mxCell id="vn2DtY_k7in4Bm42oAzA-97" style="edgeStyle=orthogonalEdgeStyle;rounded=0;orthogonalLoop=1;jettySize=auto;html=1;entryX=0;entryY=0.5;entryDx=0;entryDy=0;strokeColor=#FF3333;" parent="1" source="vn2DtY_k7in4Bm42oAzA-91" target="vn2DtY_k7in4Bm42oAzA-64" edge="1">
          <mxGeometry relative="1" as="geometry" />
        </mxCell>
        <mxCell id="vn2DtY_k7in4Bm42oAzA-98" style="edgeStyle=orthogonalEdgeStyle;rounded=0;orthogonalLoop=1;jettySize=auto;html=1;entryX=0;entryY=0.5;entryDx=0;entryDy=0;strokeColor=#FF3333;" parent="1" source="vn2DtY_k7in4Bm42oAzA-85" target="vn2DtY_k7in4Bm42oAzA-61" edge="1">
          <mxGeometry relative="1" as="geometry" />
        </mxCell>
        <mxCell id="vn2DtY_k7in4Bm42oAzA-100" style="edgeStyle=orthogonalEdgeStyle;rounded=0;orthogonalLoop=1;jettySize=auto;html=1;entryX=1;entryY=0.5;entryDx=0;entryDy=0;strokeColor=#FF3333;exitX=0;exitY=0.5;exitDx=0;exitDy=0;" parent="1" source="vn2DtY_k7in4Bm42oAzA-87" target="10" edge="1">
          <mxGeometry relative="1" as="geometry">
            <Array as="points">
              <mxPoint x="385.5" y="327" />
              <mxPoint x="385.5" y="358" />
            </Array>
          </mxGeometry>
        </mxCell>
        <mxCell id="vn2DtY_k7in4Bm42oAzA-105" style="edgeStyle=orthogonalEdgeStyle;rounded=0;orthogonalLoop=1;jettySize=auto;html=1;entryX=1;entryY=0.5;entryDx=0;entryDy=0;strokeColor=#FF3333;" parent="1" source="vn2DtY_k7in4Bm42oAzA-103" target="8" edge="1">
          <mxGeometry relative="1" as="geometry">
            <Array as="points">
              <mxPoint x="395.5" y="177" />
              <mxPoint x="395.5" y="267" />
            </Array>
          </mxGeometry>
        </mxCell>
        <mxCell id="FdYq6OV5KMdMwKKliKlB-16" value="命中区间5s，每x秒最多y" style="shape=crossbar;whiteSpace=wrap;html=1;rounded=1;strokeColor=#82b366;strokeWidth=2;labelPosition=center;verticalLabelPosition=top;align=center;verticalAlign=bottom;fillColor=#d5e8d4;fontColor=#006600;" vertex="1" parent="1">
          <mxGeometry x="190" y="670" width="160" height="30" as="geometry" />
        </mxCell>
        <mxCell id="FdYq6OV5KMdMwKKliKlB-25" value="cd区间10s，命中为打薄状态" style="shape=crossbar;whiteSpace=wrap;html=1;rounded=1;strokeColor=#FF0000;strokeWidth=2;labelPosition=center;verticalLabelPosition=top;align=center;verticalAlign=bottom;fontColor=#CC0000;" vertex="1" parent="1">
          <mxGeometry x="350" y="670" width="270" height="30" as="geometry" />
        </mxCell>
        <mxCell id="FdYq6OV5KMdMwKKliKlB-31" value="" style="line;strokeWidth=2;html=1;perimeter=backbonePerimeter;points=[];outlineConnect=0;gradientColor=none;strokeColor=#999999;fillColor=none;" vertex="1" parent="1">
          <mxGeometry x="190" y="700" width="920" height="10" as="geometry" />
        </mxCell>
        <mxCell id="FdYq6OV5KMdMwKKliKlB-32" value="命中区间5s，每x秒最多y" style="shape=crossbar;whiteSpace=wrap;html=1;rounded=1;strokeColor=#82b366;strokeWidth=2;labelPosition=center;verticalLabelPosition=top;align=center;verticalAlign=bottom;fillColor=#d5e8d4;fontColor=#006600;" vertex="1" parent="1">
          <mxGeometry x="620" y="670" width="160" height="30" as="geometry" />
        </mxCell>
        <mxCell id="FdYq6OV5KMdMwKKliKlB-33" value="cd区间10s，命中为打薄状态" style="shape=crossbar;whiteSpace=wrap;html=1;rounded=1;strokeColor=#FF0000;strokeWidth=2;labelPosition=center;verticalLabelPosition=top;align=center;verticalAlign=bottom;fontColor=#CC0000;" vertex="1" parent="1">
          <mxGeometry x="780" y="670" width="270" height="30" as="geometry" />
        </mxCell>
        <mxCell id="FdYq6OV5KMdMwKKliKlB-38" value="限频策略" style="text;html=1;align=center;verticalAlign=middle;resizable=0;points=[];autosize=1;fontSize=20;fillColor=#60a917;rounded=1;fontColor=#ffffff;gradientColor=#33FF33;" vertex="1" parent="1">
          <mxGeometry x="80" y="670" width="100" height="30" as="geometry" />
        </mxCell>
      </root>
    </mxGraphModel>
  </diagram>
</mxfile>
